<mxfile host="app.diagrams.net" modified="2024-05-07T03:34:32.940Z" agent="Mozilla/5.0 (Windows NT 10.0; Win64; x64) AppleWebKit/537.36 (KHTML, like Gecko) Chrome/124.0.0.0 Safari/537.36" etag="GUY4LqrNcnbmUghUVHGp" version="24.3.1" type="device">
  <diagram name="PÃ¡gina-1" id="_Qjqvd_sQGKJanFU87eo">
    <mxGraphModel dx="1398" dy="294" grid="1" gridSize="10" guides="1" tooltips="1" connect="1" arrows="1" fold="1" page="1" pageScale="1" pageWidth="827" pageHeight="1169" math="0" shadow="0">
      <root>
        <mxCell id="0" />
        <mxCell id="1" parent="0" />
        <mxCell id="mBG16Bfx5vCI0Rj48M9M-20" value="" style="group" vertex="1" connectable="0" parent="1">
          <mxGeometry x="-11" y="190" width="425" height="280" as="geometry" />
        </mxCell>
        <mxCell id="mBG16Bfx5vCI0Rj48M9M-1" value="clientes" style="rounded=0;whiteSpace=wrap;html=1;" vertex="1" parent="mBG16Bfx5vCI0Rj48M9M-20">
          <mxGeometry x="160" y="100" width="120" height="60" as="geometry" />
        </mxCell>
        <mxCell id="mBG16Bfx5vCI0Rj48M9M-5" value="&lt;u&gt;ID&lt;/u&gt;" style="ellipse;whiteSpace=wrap;html=1;" vertex="1" parent="mBG16Bfx5vCI0Rj48M9M-20">
          <mxGeometry y="160" width="90" height="60" as="geometry" />
        </mxCell>
        <mxCell id="mBG16Bfx5vCI0Rj48M9M-6" value="nombre" style="ellipse;whiteSpace=wrap;html=1;" vertex="1" parent="mBG16Bfx5vCI0Rj48M9M-20">
          <mxGeometry x="90" y="210" width="90" height="60" as="geometry" />
        </mxCell>
        <mxCell id="mBG16Bfx5vCI0Rj48M9M-7" value="apellido" style="ellipse;whiteSpace=wrap;html=1;" vertex="1" parent="mBG16Bfx5vCI0Rj48M9M-20">
          <mxGeometry x="210" y="220" width="90" height="60" as="geometry" />
        </mxCell>
        <mxCell id="mBG16Bfx5vCI0Rj48M9M-8" value="dni" style="ellipse;whiteSpace=wrap;html=1;" vertex="1" parent="mBG16Bfx5vCI0Rj48M9M-20">
          <mxGeometry x="310" y="190" width="90" height="60" as="geometry" />
        </mxCell>
        <mxCell id="mBG16Bfx5vCI0Rj48M9M-10" value="rango" style="ellipse;whiteSpace=wrap;html=1;" vertex="1" parent="mBG16Bfx5vCI0Rj48M9M-20">
          <mxGeometry x="220" width="90" height="60" as="geometry" />
        </mxCell>
        <mxCell id="mBG16Bfx5vCI0Rj48M9M-13" style="edgeStyle=orthogonalEdgeStyle;rounded=0;orthogonalLoop=1;jettySize=auto;html=1;exitX=0;exitY=0.75;exitDx=0;exitDy=0;entryX=0.7;entryY=0;entryDx=0;entryDy=0;entryPerimeter=0;endArrow=none;endFill=0;" edge="1" parent="mBG16Bfx5vCI0Rj48M9M-20" source="mBG16Bfx5vCI0Rj48M9M-1" target="mBG16Bfx5vCI0Rj48M9M-5">
          <mxGeometry relative="1" as="geometry" />
        </mxCell>
        <mxCell id="mBG16Bfx5vCI0Rj48M9M-14" style="edgeStyle=orthogonalEdgeStyle;rounded=0;orthogonalLoop=1;jettySize=auto;html=1;exitX=0.25;exitY=1;exitDx=0;exitDy=0;entryX=0.614;entryY=-0.052;entryDx=0;entryDy=0;entryPerimeter=0;endArrow=none;endFill=0;" edge="1" parent="mBG16Bfx5vCI0Rj48M9M-20" source="mBG16Bfx5vCI0Rj48M9M-1" target="mBG16Bfx5vCI0Rj48M9M-6">
          <mxGeometry relative="1" as="geometry" />
        </mxCell>
        <mxCell id="mBG16Bfx5vCI0Rj48M9M-15" style="edgeStyle=orthogonalEdgeStyle;rounded=0;orthogonalLoop=1;jettySize=auto;html=1;exitX=0.5;exitY=1;exitDx=0;exitDy=0;entryX=0.333;entryY=0;entryDx=0;entryDy=0;entryPerimeter=0;endArrow=none;endFill=0;" edge="1" parent="mBG16Bfx5vCI0Rj48M9M-20" source="mBG16Bfx5vCI0Rj48M9M-1" target="mBG16Bfx5vCI0Rj48M9M-7">
          <mxGeometry relative="1" as="geometry" />
        </mxCell>
        <mxCell id="mBG16Bfx5vCI0Rj48M9M-16" style="edgeStyle=orthogonalEdgeStyle;rounded=0;orthogonalLoop=1;jettySize=auto;html=1;exitX=0.75;exitY=1;exitDx=0;exitDy=0;entryX=0.163;entryY=0.071;entryDx=0;entryDy=0;entryPerimeter=0;endArrow=none;endFill=0;" edge="1" parent="mBG16Bfx5vCI0Rj48M9M-20" source="mBG16Bfx5vCI0Rj48M9M-1" target="mBG16Bfx5vCI0Rj48M9M-8">
          <mxGeometry relative="1" as="geometry" />
        </mxCell>
        <mxCell id="mBG16Bfx5vCI0Rj48M9M-17" style="edgeStyle=orthogonalEdgeStyle;rounded=0;orthogonalLoop=1;jettySize=auto;html=1;exitX=0.75;exitY=0;exitDx=0;exitDy=0;entryX=0.338;entryY=1.014;entryDx=0;entryDy=0;entryPerimeter=0;endArrow=none;endFill=0;" edge="1" parent="mBG16Bfx5vCI0Rj48M9M-20" source="mBG16Bfx5vCI0Rj48M9M-1" target="mBG16Bfx5vCI0Rj48M9M-10">
          <mxGeometry relative="1" as="geometry" />
        </mxCell>
        <mxCell id="mBG16Bfx5vCI0Rj48M9M-29" value="" style="group" vertex="1" connectable="0" parent="1">
          <mxGeometry x="640" y="290" width="290" height="170" as="geometry" />
        </mxCell>
        <mxCell id="mBG16Bfx5vCI0Rj48M9M-26" style="edgeStyle=orthogonalEdgeStyle;rounded=0;orthogonalLoop=1;jettySize=auto;html=1;exitX=0;exitY=0.75;exitDx=0;exitDy=0;entryX=0.5;entryY=0;entryDx=0;entryDy=0;endArrow=none;endFill=0;" edge="1" parent="mBG16Bfx5vCI0Rj48M9M-29" source="mBG16Bfx5vCI0Rj48M9M-21" target="mBG16Bfx5vCI0Rj48M9M-22">
          <mxGeometry relative="1" as="geometry" />
        </mxCell>
        <mxCell id="mBG16Bfx5vCI0Rj48M9M-28" style="edgeStyle=orthogonalEdgeStyle;rounded=0;orthogonalLoop=1;jettySize=auto;html=1;exitX=0.75;exitY=1;exitDx=0;exitDy=0;entryX=0.5;entryY=0;entryDx=0;entryDy=0;endArrow=none;endFill=0;" edge="1" parent="mBG16Bfx5vCI0Rj48M9M-29" source="mBG16Bfx5vCI0Rj48M9M-21" target="mBG16Bfx5vCI0Rj48M9M-25">
          <mxGeometry relative="1" as="geometry" />
        </mxCell>
        <mxCell id="mBG16Bfx5vCI0Rj48M9M-21" value="cursos" style="rounded=0;whiteSpace=wrap;html=1;" vertex="1" parent="mBG16Bfx5vCI0Rj48M9M-29">
          <mxGeometry x="80" width="120" height="60" as="geometry" />
        </mxCell>
        <mxCell id="mBG16Bfx5vCI0Rj48M9M-22" value="&lt;u&gt;ID&lt;/u&gt;" style="ellipse;whiteSpace=wrap;html=1;" vertex="1" parent="mBG16Bfx5vCI0Rj48M9M-29">
          <mxGeometry y="80" width="90" height="60" as="geometry" />
        </mxCell>
        <mxCell id="mBG16Bfx5vCI0Rj48M9M-24" value="nombre_curso" style="ellipse;whiteSpace=wrap;html=1;" vertex="1" parent="mBG16Bfx5vCI0Rj48M9M-29">
          <mxGeometry x="95" y="110" width="90" height="60" as="geometry" />
        </mxCell>
        <mxCell id="mBG16Bfx5vCI0Rj48M9M-25" value="curso_pack" style="ellipse;whiteSpace=wrap;html=1;" vertex="1" parent="mBG16Bfx5vCI0Rj48M9M-29">
          <mxGeometry x="200" y="100" width="90" height="60" as="geometry" />
        </mxCell>
        <mxCell id="mBG16Bfx5vCI0Rj48M9M-27" style="edgeStyle=orthogonalEdgeStyle;rounded=0;orthogonalLoop=1;jettySize=auto;html=1;exitX=0.25;exitY=1;exitDx=0;exitDy=0;entryX=0.486;entryY=-0.07;entryDx=0;entryDy=0;entryPerimeter=0;endArrow=none;endFill=0;" edge="1" parent="mBG16Bfx5vCI0Rj48M9M-29" source="mBG16Bfx5vCI0Rj48M9M-21" target="mBG16Bfx5vCI0Rj48M9M-24">
          <mxGeometry relative="1" as="geometry" />
        </mxCell>
        <mxCell id="mBG16Bfx5vCI0Rj48M9M-33" style="edgeStyle=orthogonalEdgeStyle;rounded=0;orthogonalLoop=1;jettySize=auto;html=1;exitX=1;exitY=0.5;exitDx=0;exitDy=0;endArrow=none;endFill=0;" edge="1" parent="1" source="mBG16Bfx5vCI0Rj48M9M-30" target="mBG16Bfx5vCI0Rj48M9M-21">
          <mxGeometry relative="1" as="geometry" />
        </mxCell>
        <mxCell id="mBG16Bfx5vCI0Rj48M9M-34" style="edgeStyle=orthogonalEdgeStyle;rounded=0;orthogonalLoop=1;jettySize=auto;html=1;exitX=0;exitY=0.5;exitDx=0;exitDy=0;entryX=1;entryY=0.5;entryDx=0;entryDy=0;endArrow=none;endFill=0;" edge="1" parent="1" source="mBG16Bfx5vCI0Rj48M9M-30" target="mBG16Bfx5vCI0Rj48M9M-1">
          <mxGeometry relative="1" as="geometry" />
        </mxCell>
        <mxCell id="mBG16Bfx5vCI0Rj48M9M-36" style="edgeStyle=orthogonalEdgeStyle;rounded=0;orthogonalLoop=1;jettySize=auto;html=1;exitX=1;exitY=0;exitDx=0;exitDy=0;entryX=0.5;entryY=1;entryDx=0;entryDy=0;endArrow=none;endFill=0;" edge="1" parent="1" source="mBG16Bfx5vCI0Rj48M9M-30" target="mBG16Bfx5vCI0Rj48M9M-35">
          <mxGeometry relative="1" as="geometry" />
        </mxCell>
        <mxCell id="mBG16Bfx5vCI0Rj48M9M-30" value="contener" style="rhombus;whiteSpace=wrap;html=1;" vertex="1" parent="1">
          <mxGeometry x="440" y="280" width="80" height="80" as="geometry" />
        </mxCell>
        <mxCell id="mBG16Bfx5vCI0Rj48M9M-31" value="1:M" style="text;html=1;align=center;verticalAlign=middle;resizable=0;points=[];autosize=1;strokeColor=none;fillColor=none;" vertex="1" parent="1">
          <mxGeometry x="500" y="260" width="40" height="30" as="geometry" />
        </mxCell>
        <mxCell id="mBG16Bfx5vCI0Rj48M9M-32" value="M:M" style="text;html=1;align=center;verticalAlign=middle;resizable=0;points=[];autosize=1;strokeColor=none;fillColor=none;" vertex="1" parent="1">
          <mxGeometry x="430" y="250" width="50" height="30" as="geometry" />
        </mxCell>
        <mxCell id="mBG16Bfx5vCI0Rj48M9M-35" value="&lt;u&gt;curso_id&lt;/u&gt;" style="ellipse;whiteSpace=wrap;html=1;" vertex="1" parent="1">
          <mxGeometry x="520" y="180" width="90" height="60" as="geometry" />
        </mxCell>
        <mxCell id="mBG16Bfx5vCI0Rj48M9M-37" value="" style="endArrow=none;html=1;rounded=0;" edge="1" parent="1">
          <mxGeometry width="50" height="50" relative="1" as="geometry">
            <mxPoint x="540" y="219.99999999999997" as="sourcePoint" />
            <mxPoint x="590" y="219.99999999999997" as="targetPoint" />
          </mxGeometry>
        </mxCell>
      </root>
    </mxGraphModel>
  </diagram>
</mxfile>
